<?xml version="1.0" encoding="UTF-8"?>
<svg width="22px" height="22px" viewBox="0 0 22 22" version="1.1" xmlns="http://www.w3.org/2000/svg" xmlns:xlink="http://www.w3.org/1999/xlink">
    <!-- Generator: Sketch 55.2 (78181) - https://sketchapp.com -->
    <title>home_ic_hot</title>
    <desc>Created with Sketch.</desc>
    <g id="切图" stroke="none" stroke-width="1" fill="none" fill-rule="evenodd">
        <g id="02---Lite" transform="translate(-25.000000, -43.000000)" fill-rule="nonzero">
            <g id="分组-14-copy" transform="translate(25.000000, 43.000000)">
                <g id="分组-13" transform="translate(4.928571, 2.357143)">
                    <path d="M12.7898437,7.70933283 C12.4198661,6.8753744 11.8905134,6.13661671 11.2169643,5.51590792 L10.6648437,5.00753601 C10.5832589,4.93518345 10.4542411,4.9675517 10.418192,5.07036849 L10.1715402,5.78056596 C10.0178571,6.2261054 9.73515625,6.6811649 9.33482143,7.12860835 C9.30825893,7.15716857 9.27790179,7.16478463 9.25703125,7.16668864 C9.23616071,7.16859266 9.20390625,7.16478463 9.17544643,7.13812842 C9.14888393,7.11528025 9.13560268,7.08100798 9.1375,7.04673572 C9.20770089,5.90051889 8.86618304,4.60769292 8.11863839,3.20062608 C7.50011161,2.03156107 8.13191964,2.13304873 7.05803571,1.49710783 L6.27444196,1.03443227 C6.17198661,0.9735038 6.91414297,1.81861456 6.91983493,1.93856748 C6.47059974,1.52222294 6.25546875,1.52222294 6.27444196,1.93856748 C6.30290179,2.5630843 6.04486607,3.26403345 5.87410714,3.72290099 C5.66540179,4.28458531 5.365625,4.80628533 4.98236607,5.27467294 C4.71294643,5.60216347 4.41127232,5.89728574 4.08113839,6.15242371 C3.28236607,6.76742045 2.62399554,7.56901062 2.178125,8.46580153 C1.72845982,9.37211252 1.49129464,10.3869523 1.49129464,11.4036962 C1.49129464,12.3023911 1.66774554,13.1725258 2.01685268,13.9931561 C2.35457589,14.7833222 2.83649554,15.4954237 3.44933036,16.1047084 C4.0640625,16.7139931 3.28616071,16.1802941 4.08113839,16.5134967 C4.90457589,16.8600273 5.77734375,17.0351967 6.67857143,17.0351967 C7.57979911,17.0351967 8.45256696,16.8600273 9.27600446,16.5154007 C10.0709821,16.1821981 10.7862723,15.7042904 11.3991071,15.0931017 C12.0138393,14.483817 12.4957589,13.7717155 12.8315848,12.9815495 C13.180692,12.1609191 13.3571429,11.2907844 13.3571429,10.3920895 C13.3571429,9.46293034 13.1674107,8.56042738 12.7898437,7.70933283 Z" id="Combined-Shape-Copy-2" fill="#008EFF"></path>
                    <path d="M9.55696135,11.9634365 C9.36636679,11.5906824 9.09366996,11.2604801 8.74669012,10.983042 L8.46226438,10.7558152 C8.42023584,10.7234758 8.3537721,10.7379434 8.33520134,10.7838994 L8.2081383,11.1013362 C8.12896825,11.3004788 7.98333446,11.5038766 7.77710137,11.7038703 C7.76341766,11.7166358 7.74777913,11.72004 7.73702764,11.720891 C7.72627615,11.721742 7.70966022,11.72004 7.6949991,11.7081254 C7.68131539,11.697913 7.67447353,11.6825943 7.67545094,11.6672757 C7.71161503,11.1549515 7.53568159,10.5770975 7.15058284,9.94818121 C6.83194783,9.42564458 6.389182,9.01799793 5.83596907,8.73375161 L5.43229956,8.52694966 C5.37951953,8.49971648 5.31207837,8.53546002 5.3150106,8.58907535 L5.33651357,8.99757304 C5.35117469,9.27671313 5.31403319,9.52351382 5.22606647,9.7286137 C5.11855159,9.97966958 4.96412112,10.2128537 4.7666847,10.4222087 C4.62789277,10.5685871 4.47248489,10.7004978 4.3024159,10.8145367 C3.89092713,11.0894216 3.55176655,11.4477082 3.32207567,11.8485465 C3.09042997,12.2536401 2.96825397,12.7072427 2.96825397,13.1616964 C2.96825397,13.5633858 3.05915291,13.9523096 3.23899599,14.3191065 C3.41297461,14.6722868 3.66123625,14.9905746 3.97693903,15.2629064 C4.29361923,15.5352382 4.66112464,15.7496995 5.07065859,15.8986309 C5.49485367,16.0535197 5.94446135,16.131815 6.40873016,16.131815 C6.87299896,16.131815 7.32260665,16.0535197 7.74680172,15.899482 C8.15633568,15.7505505 8.5248185,15.5369403 8.84052128,15.2637574 C9.15720148,14.9914257 9.40546311,14.6731379 9.57846433,14.3199576 C9.7583074,13.9531607 9.84920635,13.5642368 9.84920635,13.1625474 C9.84920635,12.7472414 9.75146555,12.34385 9.55696135,11.9634365 Z" id="Shape-Copy-9" stroke="#154E9B" stroke-width="1.17857143" fill="#FCCD53"></path>
                    <path d="M3.70337279,15.8123702 C3.05888035,15.5039056 2.47374079,15.0974804 1.95803571,14.6028843 C1.34520089,14.0133145 0.86328125,13.3242549 0.525558036,12.5596566 C0.176450893,11.7655798 -8.8817842e-15,10.9236005 -8.8817842e-15,10.0539851 C-8.8817842e-15,9.07014052 0.237165179,8.08813838 0.686830357,7.21115335 C1.13270089,6.34338035 1.79107143,5.56772763 2.58984375,4.97263064 C2.91997768,4.7257483 3.22165179,4.44017545 3.49107143,4.1232817 C3.87433036,3.67004994 4.17410714,3.16523083 4.3828125,2.6217212 C4.55357143,2.17770147 4.62566964,1.64340387 4.59720982,1.03909486 L4.55546875,0.154740214 C4.54977679,0.0386686659 4.68069196,-0.0387123658 4.78314732,0.0202446107 L5.56067702,0.317373758 C6.67250738,0.888519469 7.81357468,1.84986036 8.43210147,2.98109735 C9.17964611,4.34263502 9.33589198,5.45173047 9.26569109,6.5608586 C9.26379376,6.59402189 9.27707501,6.62718519 9.30363751,6.64929406 C9.33209734,6.67508774 9.3643518,6.67877255 9.38522234,6.67693014 C9.40609287,6.67508774 9.43645001,6.66771812 9.46301251,6.64008203 C9.86334734,6.20711674 10.1460482,5.76678182 10.2997313,5.33565893 L10.546383,4.64844167 C10.5824322,4.54895177 10.71145,4.51763088 10.7930348,4.58764228 L11.3451554,5.07956456 C12.0187045,5.68018876 12.4815142,6.40146268 12.8315848,7.30048218 C13.1816555,8.19950168 13.3571429,9.15673358 13.3571429,10.0558275 C13.3571429,10.9254429 13.180692,11.7674222 12.8315848,12.561499 C12.4957589,13.3260973 12.0138393,14.0151569 11.3991071,14.6047267 C10.7862723,15.1961389 10.0709821,15.6585827 9.27600446,15.9810036 C8.99998431,16.0927862 8.71842129,16.1861442 8.43210147,16.2608696 C7.51406513,16.4061571 6.66897461,16.4405887 5.8968299,16.3641645 C5.12468519,16.2877403 4.39353282,16.1038088 3.70337279,15.8123702 Z" id="路径-copy" stroke="#154E9B" stroke-width="1.57142857" stroke-linecap="round" stroke-linejoin="round"></path>
                </g>
                <rect id="home_ic_hot" x="0" y="0" width="22" height="22"></rect>
            </g>
        </g>
    </g>
</svg>